PathFileType	4	(X/Y/Z)	/home/filipkon/dev/OpenSimRT/data/gait1992/experimental_data/task_resampled.trc
DataRate	CameraRate	NumFrames	NumMarkers	Units	OrigDataRate	OrigDataStartFrame	OrigNumFrames
100	100	4	41	mm	100	94	251
Frame#	Time	R.ASIS			L.ASIS			V.Sacral			R.Thigh.Upper			R.Thigh.Front			R.Thigh.Rear			L.Thigh.Upper			L.Thigh.Front			L.Thigh.Rear			R.Shank.Upper			R.Shank.Front			R.Shank.Rear			L.Shank.Upper			L.Shank.Front			L.Shank.Rear			R.Heel			R.Midfoot.Sup			R.Midfoot.Lat			R.Toe.Tip			L.Heel			L.Midfoot.Sup			L.Midfoot.Lat			L.Toe.Tip			Sternum			R.Acromium			L.Acromium			R.Bicep			L.Bicep			R.Elbow			L.Elbow			R.Wrist.Med			R.Wrist.Lat			L.Wrist.Med			L.Wrist.Lat			R.Toe.Lat			R.Toe.Med			L.Toe.Lat			L.Toe.Med			R.Temple			L.Temple			Top.Head			
		X1	Y1	Z1	X2	Y2	Z2	X3	Y3	Z3	X4	Y4	Z4	X5	Y5	Z5	X6	Y6	Z6	X7	Y7	Z7	X8	Y8	Z8	X9	Y9	Z9	X10	Y10	Z10	X11	Y11	Z11	X12	Y12	Z12	X13	Y13	Z13	X14	Y14	Z14	X15	Y15	Z15	X16	Y16	Z16	X17	Y17	Z17	X18	Y18	Z18	X19	Y19	Z19	X20	Y20	Z20	X21	Y21	Z21	X22	Y22	Z22	X23	Y23	Z23	X24	Y24	Z24	X25	Y25	Z25	X26	Y26	Z26	X27	Y27	Z27	X28	Y28	Z28	X29	Y29	Z29	X30	Y30	Z30	X31	Y31	Z31	X32	Y32	Z32	X33	Y33	Z33	X34	Y34	Z34	X35	Y35	Z35	X36	Y36	Z36	X37	Y37	Z37	X38	Y38	Z38	X39	Y39	Z39	X40	Y40	Z40	X41	Y41	Z41	

95	0.9399999999999999	626.2740035294117	1079.486595294118	170.2093870588235	619.3642364705883	1072.00308	-90.41074352941175	424.3123335294117	1073.404758823529	53.26252117647059	608.7014317647058	755.2408017647059	214.6821623529412	673.2875241176471	699.3225894117647	119.2235235294118	610.4848099999999	633.2117588235294	203.0773394117647	622.6159682352941	768.9458	-158.8360617647059	730.0511811764707	753.6246764705883	-114.5788252941176	654.2543329411765	662.8911047058824	-154.2586235294118	550.8676829411764	458.6774394117647	186.4067229411765	625.9392323529412	420.0432876470588	132.9948488235294	558.6554917647059	372.0050123529412	190.6970917647059	615.6799805882353	488.5822688235294	-156.1720117647059	618.30043	416.5441305882353	-105.4461305882353	567.7373770588235	472.0109605882353	-156.8845482352941	463.738554117647	71.12473941176471	95.98862176470588	609.6115911764705	78.36921588235295	70.14667235294117	596.4512358823529	62.80855882352941	176.1531911764706	751.3715905882352	49.19411823529412	119.9818770588235	303.9364647058824	286.9438294117647	-43.88483882352941	421.4279588235295	162.7976917647059	-35.48090176470588	391.6404764705883	170.6317452941176	-129.2430388235294	473.2389976470589	66.78949352941176	-73.22924117647058	647.3673782352942	1383.494354117647	41.33214294117647	558.3038664705882	1465.557105882353	259.0426958823529	569.1856082352941	1506.318954705882	-157.6964164705882	572.5729635294117	1262.931648823529	301.4008376470588	567.4282082352941	1269.556044705882	-200.5870235294118	536.2173505882353	1157.636520588235	331.3923152941176	507.4176464705882	1181.128429411765	-240.5223564705882	708.07862	950.1774511764706	311.6521082352941	670.9894064705883	928.7669929411765	361.7809905882353	596.93503	943.4265688235295	-207.226205882353	551.3954676470588	940.2112435294117	-267.6901364705882	684.0248452941177	39.26246764705883	195.8967029411765	696.0755517647059	47.06067882352941	85.96526176470589	414.0349411764707	107.4696252941176	-142.2942	443.4371547058824	101.0056405882353	-42.92684999999999	716.3659188235295	1600.656128823529	138.9919182352941	728.6991052941177	1609.668198235294	0.315799411764708	727.5349570588235	1779.739660588235	85.20010470588235	
96	0.95	623.44818	1079.39246	171.80344	618.75446	1073.33508	-88.96711999999998	423.16211	1074.5105	53.72158000000001	603.3231199999999	754.85229	215.07388	667.8461299999999	699.03436	120.084	603.7025099999998	633.2785	203.69791	627.49268	771.3457	-158.39035	734.03674	757.3941	-112.49499	660.2050800000001	665.69104	-153.5022	541.7532299999999	458.92151	186.33897	616.3553499999999	419.93497	133.16499	549.2993799999999	372.02133	190.36278	625.2990100000001	489.74371	-154.5946	629.5029300000001	418.21506	-103.93226	577.8038300000001	471.89639	-155.86266	452.6937599999999	71.33150999999999	95.96391	598.6255499999999	78.33881	70.05779	585.2305299999999	62.79	175.95575	740.2910199999999	48.90823	120.00063	318.6384000000002	277.8605999999999	-44.07338	440.3443000000002	160.87198	-34.04528999999999	412.2518000000002	165.49071	-128.51598	496.9882800000003	64.83166999999997	-71.44909999999999	646.22559	1384.36206	41.92009000000001	558.00659	1467.0697	259.33279	567.33032	1507.11169	-157.22054	573.47894	1264.39929	301.98972	564.18042	1270.51868	-200.3927	537.94928	1158.81055	332.59738	502.7358699999999	1182.0166	-239.39388	712.07172	953.26141	310.88452	675.6702299999999	931.42084	361.41742	592.60803	945.04321	-206.401	547.60425	941.26672	-267.09436	673.0645099999999	39.67105	195.96065	684.6158399999999	46.73662	85.94204999999999	435.8642000000003	102.5985899999999	-140.901	465.3226900000003	97.55956999999995	-41.47994999999999	716.33856	1601.73767	139.11713	728.04657	1610.44751	0.7945699999999994	727.56641	1780.50439	85.05804000000001	
97	0.96	621.6098035294118	1079.423695294118	172.8954752941176	617.8022364705882	1074.121215294118	-88.17287882352942	421.9074394117647	1075.335764705882	54.07793294117647	597.7885258823529	754.8868311764707	215.6560741176471	662.1054123529411	698.3331423529412	120.9248352941176	596.5599629411764	633.0857411764706	203.8227335294118	631.8407505882353	773.5770058823529	-157.8065147058824	737.2972047058823	761.1274058823529	-110.6880076470588	665.4914035294117	668.4869164705882	-152.1487235294118	533.0107005882353	459.1266394117647	186.6992052941176	607.1292382352941	419.534575882353	133.5013135294118	540.1055094117647	372.3524652941176	190.6094976470588	633.1714335294117	490.8580688235294	-154.1230705882353	641.2874535294118	419.66186	-102.3315070588235	587.4388064705882	471.2217547058823	-154.8923482352941	441.744354117647	71.54228058823529	95.89321588235293	587.6661147058824	78.29916294117648	69.90685470588235	574.0378652941176	62.8266705882353	175.8147852941176	729.2709788235294	48.57773588235294	120.0469358823529	334.3514117647059	267.0783235294118	-44.16519764705883	460.6234823529412	156.2152329411765	-33.12146647058824	433.7339823529412	159.4077217647059	-127.9474094117647	521.9305152941176	62.53367588235295	-70.02877647058823	645.28349	1384.963007058823	42.35781352941176	557.6173664705882	1467.976323529412	259.9615429411765	566.7421964705883	1507.449684117647	-157.1966811764706	574.65484	1265.172213529412	302.9474670588235	560.3539494117647	1270.899109411765	-199.993	539.4507094117647	1159.740797058824	333.6382094117647	498.8008994117647	1183.205064705882	-238.3987682352941	715.84692	956.4690276470589	310.1529435294118	680.2843770588235	933.7194929411764	360.6717317647059	588.96423	946.1899570588236	-205.9467529411765	543.5548147058823	941.9905258823529	-266.3021423529412	662.1216629411765	39.46896764705883	195.7914735294117	673.236951764706	46.44226117647059	85.90230882352941	459.7776470588235	97.56959000000001	-139.9069823529412	488.6544723529412	93.6385994117647	-40.3449205882353	716.3859188235294	1602.653917058823	139.1412182352941	727.1265170588235	1611.114804117647	0.7418523529411765	726.6948629411764	1781.362548823529	85.13488117647059	
98	0.97	620.07997	1079.547275	173.9785825	617.2372581249999	1075.014123125	-87.34482125	420.60339875	1076.091726875	54.419204375	592.29047375	754.885043125	216.144311875	656.1995274999999	697.473456875	121.73698	589.2895343749999	632.9075612500001	204.072625625	635.99922625	775.76253	-157.15201375	740.64954	764.75541	-108.679035625	670.5916956249999	671.14292125	-150.96192	523.937428125	459.44535875	186.877264375	597.9389575	419.284015	133.8025	530.86109875	372.704125	190.744608125	641.558659375	491.614024375	-153.239584375	652.8269224999999	421.049539375	-100.889599375	597.026024375	470.36575	-153.875091875	430.621011875	71.76094437499999	95.78444999999999	576.508020625	78.261275625	69.74155999999999	562.643865625	62.87301375	175.686659375	718.0393206250001	48.23059375	120.09328125	350.734708125	255.650940625	-44.18098625	481.7000025	151.016116875	-32.33398875	455.874784375	153.034645	-127.45140375	547.7187118750001	60.218364375	-68.79409812499999	644.5523125	1385.453890625	42.692358125	557.005203125	1468.74156125	260.605780625	566.011803125	1507.70951125	-157.128393125	575.3332125000001	1265.85459375	303.82601125	556.6969381250001	1271.276531875	-199.6187625	540.934971875	1160.61062125	334.65188	494.6521175	1184.213136875	-237.473755	719.84363625	959.674403125	309.37125625	684.97648	936.1978899999999	359.992205	585.25315125	947.32245125	-205.522971875	539.3822943749999	942.7170093750001	-265.362714375	650.0506256250001	39.194836875	195.6735675	661.6858956250001	46.158388125	85.86673875	484.5556125	92.45848562499999	-139.057346875	512.880815	89.61106375	-39.368001875	716.2112675000001	1603.43703625	139.091511875	726.34997	1611.753571875	0.731966875	725.842130625	1782.097155625	85.092113125	
